<svg xmlns="http://www.w3.org/2000/svg" xmlns:xlink="http://www.w3.org/1999/xlink" viewBox="0 0 185.54 146.97"><defs><style>.cls-1{fill:#f2cabd;}.cls-2{fill:#841a13;}.cls-3{fill:#dd2f26;}.cls-4{fill:#a85442;}.cls-5{fill:#a34636;}.cls-6{fill:#cc9e92;}.cls-7{fill:url(#linear-gradient);}.cls-17,.cls-8{fill:none;}.cls-8{stroke:#8c070e;stroke-miterlimit:10;}.cls-9{fill:#8c070e;}.cls-10{fill:#f3d2c4;}.cls-11{fill:#eda591;}.cls-12{fill:#53403a;}.cls-13{fill:#474753;}.cls-14{fill:#b0b2bf;}.cls-15{fill:#b9bac3;}.cls-16{fill:#231f20;}</style><linearGradient id="linear-gradient" x1="159.35" y1="87.87" x2="150.07" y2="110.24" gradientUnits="userSpaceOnUse"><stop offset="0" stop-color="#e2c7bc"/><stop offset="0.25" stop-color="#e3c6ba"/><stop offset="0.33" stop-color="#e6c1b3"/><stop offset="0.4" stop-color="#ebb9a8"/><stop offset="0.44" stop-color="#f1af9a"/><stop offset="0.45" stop-color="#f1aa96"/><stop offset="0.58" stop-color="#f6796f"/><stop offset="0.71" stop-color="#fa5250"/><stop offset="0.82" stop-color="#fd373a"/><stop offset="0.92" stop-color="#fe262d"/><stop offset="1" stop-color="#ff2028"/></linearGradient></defs><title>Asset 8</title><g id="Layer_2" data-name="Layer 2"><g id="Artboard_1" data-name="Artboard 1"><g id="Burner"><polygon class="cls-1" points="0 53.35 92.4 0 184.8 53.35 92.4 106.69 0 53.35"/><polygon class="cls-2" points="184.8 53.35 184.8 93.62 92.4 146.97 92.4 106.69 184.8 53.35"/><polygon class="cls-3" points="0 53.35 0 93.62 92.4 146.97 92.4 106.69 0 53.35"/><polygon class="cls-4" points="175.31 97.05 165.47 96.85 178.66 70.18 183.73 77.71 175.31 97.05"/><path class="cls-5" d="M180.57,76.84c0,7.3-4.45,15.78-9.94,19s-9.94-.17-9.94-7.47,4.45-15.78,9.94-18.95S180.57,69.54,180.57,76.84Z"/><path class="cls-6" d="M185.54,83c0,5.08-3.09,11-6.92,13.19s-6.92-.12-6.92-5.2,3.1-11,6.92-13.19S185.54,78,185.54,83Z"/><path class="cls-7" d="M163.68,72.61c-15.05,30.62,0,27,0,27l-24.22,14Z"/><polygon points="180.1 87.19 178.62 88.05 178.62 80.04 180.1 79.18 180.1 87.19"/><path class="cls-8" d="M8.33,51,91.78,2.86a1.06,1.06,0,0,1,1.06,0L176.28,51a1.05,1.05,0,0,1,0,1.83L92.84,101.05a1.06,1.06,0,0,1-1.06,0L8.33,52.87A1.06,1.06,0,0,1,8.33,51Z"/><path class="cls-9" d="M92.4,8.17,17.47,51.43,92.4,94.69l74.93-43.26Zm19.85,52.32c-13.44,7.56-33.65,8.18-45.14,1.38s-9.9-18.45,3.54-26,33.65-8.19,45.13-1.38S125.69,52.93,112.25,60.49Z"/><path class="cls-10" d="M108.51,58.07C97.19,64.3,80.35,64.72,70.88,59s-8-15.41,3.36-21.64,28.16-6.65,37.62-.93S119.82,51.84,108.51,58.07Z"/><ellipse class="cls-11" cx="90.85" cy="44.38" rx="20.08" ry="11.32" transform="translate(-4.34 10.29) rotate(-6.33)"/><path class="cls-12" d="M101.15,50.44c-6.62,3.65-16.48,3.9-22,.55s-4.66-9,2-12.67,16.48-3.89,22-.54S107.77,46.8,101.15,50.44Z"/><polygon class="cls-13" points="51.78 64.49 82.29 46.87 83.92 48.02 53.58 65.56 51.78 64.49"/><polygon class="cls-13" points="53.58 65.54 83.92 48.02 85.47 49.01 55.38 66.61 53.58 65.54"/><polygon class="cls-13" points="53.58 67.62 55.41 66.57 57.23 67.62 55.41 68.68 53.58 67.62"/><polygon points="57.23 67.62 57.23 73.95 55.41 75.01 55.41 68.68 57.23 67.62"/><polygon class="cls-14" points="53.58 67.62 53.58 73.95 55.41 75.01 55.41 68.68 53.58 67.62"/><polygon class="cls-13" points="51.78 66.57 53.6 65.51 55.43 66.57 53.6 67.62 51.78 66.57"/><polygon class="cls-14" points="51.78 66.57 51.78 72.9 53.6 73.95 53.6 67.62 51.78 66.57"/><polygon class="cls-13" points="49.95 65.51 51.78 64.45 53.6 65.51 51.78 66.57 49.95 65.51"/><polygon class="cls-14" points="49.95 65.51 49.95 71.84 51.78 72.9 51.78 66.57 49.95 65.51"/><polygon class="cls-13" points="55.41 66.61 85.47 49.01 87.33 50.26 57.2 67.65 55.41 66.61"/><polygon points="87.33 52.34 87.33 50.27 57.2 67.65 57.2 69.73 87.33 52.34"/><polygon class="cls-13" points="55.91 20.34 57.85 19.23 59.78 20.34 57.85 21.46 55.91 20.34"/><polygon class="cls-15" points="55.91 20.34 55.91 27.03 57.85 28.14 57.85 21.46 55.91 20.34"/><polygon class="cls-13" points="53.98 21.46 55.91 20.34 57.85 21.46 55.91 22.57 53.98 21.46"/><polygon class="cls-16" points="57.85 21.46 57.85 28.14 55.91 29.26 55.91 22.57 57.85 21.46"/><polygon class="cls-15" points="53.98 21.46 53.98 28.14 55.91 29.26 55.91 22.57 53.98 21.46"/><polygon class="cls-13" points="52.05 22.57 53.98 21.46 55.91 22.57 53.98 23.69 52.05 22.57"/><polygon class="cls-16" points="55.91 22.57 55.91 29.26 53.98 30.37 53.98 23.69 55.91 22.57"/><polygon class="cls-14" points="52.05 22.57 52.05 29.26 53.98 30.37 53.98 23.69 52.05 22.57"/><polygon class="cls-13" points="55.91 20.34 57.85 19.23 85.22 35.04 83.29 36.16 55.91 20.34"/><polygon class="cls-17" points="85.22 35.04 85.22 37.27 83.29 38.39 83.29 36.16 85.22 35.04"/><polygon class="cls-13" points="53.98 21.46 55.91 20.34 83.29 36.16 81.36 37.27 53.98 21.46"/><polygon class="cls-17" points="83.29 36.16 83.29 38.39 81.36 39.5 81.36 37.27 83.29 36.16"/><polygon class="cls-13" points="52.05 22.57 53.98 21.46 81.36 37.27 79.43 38.39 52.05 22.57"/><polygon class="cls-17" points="81.36 37.27 81.36 39.5 79.43 40.62 79.43 38.39 81.36 37.27"/><polygon class="cls-14" points="52.05 22.57 52.05 24.8 79.43 40.62 79.43 38.39 52.05 22.57"/><polygon points="82.81 36.43 82.75 38.69 81.07 39.66 80.88 37.54 82.81 36.43"/><polygon points="81.06 37.44 81.11 39.65 79.43 40.62 79.43 38.39 81.06 37.44"/><polygon points="84.38 35.52 84.43 37.73 82.75 38.7 82.55 36.59 84.38 35.52"/><polygon points="85.22 35.04 85.27 37.25 83.59 38.22 83.59 35.99 85.22 35.04"/><polygon class="cls-13" points="99.28 52.16 101.36 50.96 130.86 68 128.78 69.2 99.28 52.16"/><polygon class="cls-17" points="130.86 68 130.86 70.41 128.78 71.61 128.78 69.2 130.86 68"/><polygon class="cls-14" points="99.28 52.16 99.28 54.56 128.78 71.61 128.78 69.2 99.28 52.16"/><polygon class="cls-13" points="101.36 50.96 103.44 49.76 132.94 66.8 130.86 68 101.36 50.96"/><polygon class="cls-17" points="132.94 66.8 132.94 69.2 130.86 70.41 130.86 68 132.94 66.8"/><polygon class="cls-13" points="103.44 49.76 105.52 48.55 135.02 65.6 132.94 66.8 103.44 49.76"/><polygon class="cls-17" points="135.02 65.6 135.02 68 132.94 69.2 132.94 66.8 135.02 65.6"/><polygon points="135.02 65.55 135.02 72.75 132.94 73.96 132.94 66.75 135.02 65.55"/><polygon points="132.94 66.75 132.94 73.96 130.86 75.16 130.86 67.95 132.94 66.75"/><polygon points="130.86 67.95 130.86 75.16 128.78 76.36 128.78 69.15 130.86 67.95"/><polygon class="cls-14" points="126.7 67.95 126.7 75.16 128.78 76.36 128.78 69.15 126.7 67.95"/><polygon class="cls-13" points="125.94 21.84 127.62 20.87 129.3 21.84 127.62 22.81 125.94 21.84"/><polygon class="cls-15" points="125.97 21.81 125.97 27.63 127.65 28.6 127.65 22.78 125.97 21.81"/><polygon class="cls-13" points="98.33 37.78 126 21.81 127.65 22.77 99.99 38.76 98.33 37.78"/><polygon points="98.33 37.76 98.33 39.67 99.99 40.62 99.99 38.71 98.33 37.76"/><polygon class="cls-13" points="127.59 22.81 129.3 21.84 130.98 22.79 129.28 23.78 127.59 22.81"/><polygon class="cls-14" points="127.62 22.79 127.62 28.6 129.3 29.57 129.3 23.76 127.62 22.79"/><polygon class="cls-13" points="99.87 38.65 128.19 22.34 130.98 22.79 101.72 39.77 99.87 38.65"/><polygon points="101.67 39.74 101.67 41.64 103.32 42.6 103.32 40.69 101.67 39.74"/><polygon points="99.99 38.71 99.99 40.62 101.69 41.65 101.69 39.74 99.99 38.71"/><polygon class="cls-13" points="129.3 23.75 130.98 22.78 132.66 23.75 130.98 24.72 129.3 23.75"/><polygon points="132.66 23.76 132.66 29.58 130.98 30.55 130.98 24.73 132.66 23.76"/><polygon class="cls-14" points="129.28 23.76 129.28 29.58 130.95 30.55 130.95 24.73 129.28 23.76"/><polygon class="cls-13" points="101.67 39.73 129.28 23.56 130.98 24.72 103.32 40.69 101.67 39.73"/><polygon points="130.98 26.63 130.98 24.72 103.32 40.69 103.32 42.6 130.98 26.63"/></g></g></g></svg>