<svg xmlns="http://www.w3.org/2000/svg" xmlns:xlink="http://www.w3.org/1999/xlink" viewBox="0 0 100.94 100.94"><defs><style>.cls-1,.cls-10,.cls-11,.cls-8,.cls-9{fill:none;stroke:#fff;stroke-miterlimit:10;}.cls-2{fill:#a34636;}.cls-3{fill:#cc9e92;}.cls-4,.cls-6,.cls-7{fill:#231f20;}.cls-4{opacity:0.3;}.cls-5{opacity:0.85;}.cls-6{opacity:0.5;}.cls-7{opacity:0.75;}.cls-8{stroke-width:0.5px;}.cls-9{stroke-width:0.2px;}.cls-10{stroke-width:0.1px;}.cls-11{stroke-width:0.3px;}.cls-12{fill:url(#linear-gradient);}</style><linearGradient id="linear-gradient" x1="43.11" y1="41.92" x2="32.1" y2="68.45" gradientUnits="userSpaceOnUse"><stop offset="0" stop-color="#e2c7bc"/><stop offset="0.25" stop-color="#e3c6ba"/><stop offset="0.33" stop-color="#e6c1b3"/><stop offset="0.4" stop-color="#ebb9a8"/><stop offset="0.44" stop-color="#f1af9a"/><stop offset="0.44" stop-color="#f1ae99"/><stop offset="0.58" stop-color="#f67d71"/><stop offset="0.7" stop-color="#fa5652"/><stop offset="0.82" stop-color="#fd3b3c"/><stop offset="0.92" stop-color="#fe2a2e"/><stop offset="1" stop-color="#ff2429"/></linearGradient></defs><title>Asset 13</title><g id="Layer_2" data-name="Layer 2"><g id="Artboard_1" data-name="Artboard 1"><g id="close-up"><circle class="cls-1" cx="50.47" cy="50.47" r="49.97"/><path class="cls-2" d="M71.36,27.65c0,10.05-6.13,21.75-13.7,26.12S44,53.52,44,43.47s6.14-21.75,13.7-26.12S71.36,17.59,71.36,27.65Z"/><polygon class="cls-2" points="64.12 55.51 50.55 55.22 68.74 18.46 75.72 28.84 64.12 55.51"/><path class="cls-3" d="M78.22,36.18c0,7-4.27,15.14-9.54,18.18s-9.53-.17-9.53-7.17S63.42,32.05,68.68,29,78.22,29.18,78.22,36.18Z"/><polygon class="cls-4" points="70.72 41.04 68.68 42.22 68.68 31.18 70.72 30 70.72 41.04"/><polygon class="cls-5" points="68.19 42.63 60.29 47.19 60.29 45.12 68.16 40.58 68.19 42.63"/><polygon class="cls-6" points="69.01 38.37 68.47 40.14 64.24 35.59 64.78 33.83 69.01 38.37"/><polygon class="cls-7" points="68.45 39.92 69.01 41.68 62.94 40.36 62.38 38.6 68.45 39.92"/><line class="cls-8" x1="40.59" y1="18.05" x2="33.47" y2="28.89"/><line class="cls-9" x1="40.59" y1="12.44" x2="36.22" y2="19.14"/><line class="cls-10" x1="43.92" y1="12.14" x2="41.66" y2="15.6"/><line class="cls-11" x1="48.68" y1="11.04" x2="42.36" y2="20.72"/><path class="cls-12" d="M48.24,23.83c-17.84,36.31,0,32.05,0,32.05L19.52,72.46Z"/></g></g></g></svg>