<svg xmlns="http://www.w3.org/2000/svg" xmlns:xlink="http://www.w3.org/1999/xlink" viewBox="0 0 155.89 80.34"><defs><style>.cls-1{fill:none;}.cls-2{isolation:isolate;}.cls-3{clip-path:url(#clip-path);}.cls-4{fill:#858585;}.cls-5{fill:#8a8a8a;}.cls-6{fill:#8f8f8f;}.cls-7{fill:#fff;}.cls-8{clip-path:url(#clip-path-2);}.cls-9{fill:#949494;}.cls-10{fill:#999;}.cls-11{fill:#9e9e9e;}.cls-12{fill:#a3a3a3;}.cls-13{fill:#a8a8a8;}.cls-14{fill:#adadad;}.cls-15{fill:#b3b3b3;}.cls-16{fill:#b8b8b8;}.cls-17{fill:#a1920a;}.cls-18{fill:#a5960b;}.cls-19{fill:#a9990c;}.cls-20{fill:#ad9d0d;}.cls-21{fill:#b1a10e;}.cls-22{fill:#b6a50f;}.cls-23{fill:#baa910;}.cls-24{fill:#bfac10;}.cls-25{fill:#9d8f08;}.cls-26{fill:#998b07;}.cls-27{fill:#958705;}.cls-28{fill:#ffe309;}</style><clipPath id="clip-path"><path class="cls-1" d="M0,43.38V42C0,52.62,6.93,59,13.17,62.62a40.64,40.64,0,0,0,9,3.84,8.67,8.67,0,0,1,1.15.4v1.4a9.15,9.15,0,0,0-1.15-.39,41.66,41.66,0,0,1-9-3.84C6.93,60.42,0,54,0,43.38Z"/></clipPath><clipPath id="clip-path-2"><path class="cls-1" d="M155.89,23.54v1.4c0,4.48-2,12.16-9.83,24.89-9.28,15-15.13,18.77-18.32,19.33a8.77,8.77,0,0,0-5.07,2.42c-3.48,3.89-9.63,6.56-12.55,7.68a11.6,11.6,0,0,1-3.37.7,273.15,273.15,0,0,1-40-.84A160.23,160.23,0,0,1,23.36,68.26v-1.4A161.15,161.15,0,0,0,66.69,77.72a273.15,273.15,0,0,0,40.05.84,11.93,11.93,0,0,0,3.37-.7c2.92-1.12,9.07-3.79,12.55-7.68a8.84,8.84,0,0,1,5.07-2.43c3.2-.56,9-4.27,18.32-19.32C153.92,35.7,155.87,28,155.89,23.54Z"/></clipPath></defs><title>Asset 42</title><g id="Layer_2" data-name="Layer 2"><g id="Artboard_1" data-name="Artboard 1"><g id="Suuny_Side_Up_Egg" data-name="Suuny Side Up Egg"><g class="cls-2"><g class="cls-2"><g class="cls-3"><g class="cls-2"><path class="cls-4" d="M23.36,66.86v1.4l-.22-.09v-1.4l.22.09"/><path class="cls-5" d="M23.14,66.77v1.4a8.45,8.45,0,0,0-.85-.28v-1.4a8.27,8.27,0,0,1,.84.28"/><path class="cls-6" d="M22.3,66.49v1.4l-.08,0-.09,0v-1.4l.08,0,.09,0"/><path class="cls-5" d="M22.13,66.44v1.4a35.53,35.53,0,0,1-3.48-1.19v-1.4c1.53.6,2.76,1,3.48,1.19"/><path class="cls-4" d="M18.65,65.25v1.4A40.65,40.65,0,0,1,13.17,64C6.93,60.42,0,54,0,43.38V42C0,52.62,6.93,59,13.17,62.62a39.7,39.7,0,0,0,5.48,2.63"/></g></g></g><path class="cls-7" d="M142.89,8.05c7,4.07,10.24,8.38,11,9.51a4.42,4.42,0,0,0,.4.48c1.1,1.15,5.69,7.88-8.23,30.39-9.28,15-15.12,18.76-18.32,19.32a8.84,8.84,0,0,0-5.07,2.43c-3.48,3.89-9.63,6.56-12.55,7.68a11.93,11.93,0,0,1-3.37.7,273.15,273.15,0,0,1-40-.84A161.15,161.15,0,0,1,23.36,66.86a8.67,8.67,0,0,0-1.15-.4,40.64,40.64,0,0,1-9-3.84C5.24,58-3.87,48.92,1.74,32.31,8,13.87,22.88,10.48,31.83,10.23A31.57,31.57,0,0,0,43.32,7.76c.57-.25,1.23-.5,1.94-.74,5-1.71,10.22-3.3,53.37-6.65C120.51-1.34,134.45,3.18,142.89,8.05Z"/><g class="cls-2"><g class="cls-8"><g class="cls-2"><path class="cls-9" d="M155.89,23.54V24c0-.15,0-.29,0-.43"/><path class="cls-10" d="M155.88,24v1.4a22.51,22.51,0,0,1-.45,3.62v-1.4a21.32,21.32,0,0,0,.44-3.62"/><path class="cls-11" d="M155.44,27.59V29a36.77,36.77,0,0,1-1.73,5.87V33.45a38.9,38.9,0,0,0,1.73-5.86"/><path class="cls-12" d="M153.71,33.45v1.41a76.93,76.93,0,0,1-5.1,10.66v-1.4a78.37,78.37,0,0,0,5.11-10.67"/><path class="cls-13" d="M148.6,44.12v1.4c-.77,1.37-1.62,2.8-2.55,4.31a107.48,107.48,0,0,1-6.78,9.86v-1.4a107,107,0,0,0,6.77-9.86c.93-1.51,1.78-2.94,2.55-4.31"/><path class="cls-14" d="M139.28,58.29v1.4a47,47,0,0,1-5,5.56V63.84a48.54,48.54,0,0,0,5-5.55"/><path class="cls-15" d="M134.27,63.84v1.41a20.58,20.58,0,0,1-3.42,2.64v-1.4a21.58,21.58,0,0,0,3.42-2.65"/><path class="cls-16" d="M130.85,66.49v1.4a10.69,10.69,0,0,1-2.18,1v-1.4a10.94,10.94,0,0,0,2.18-1"/><path class="cls-15" d="M128.67,67.52v1.4a6,6,0,0,1-.9.23v-1.4a8.09,8.09,0,0,0,.91-.23"/><path class="cls-14" d="M127.76,67.75v1.4h-.1v-1.4l.06,0h0"/><path class="cls-15" d="M127.67,67.77v1.4a13.39,13.39,0,0,0-1.63.4v-1.4a11.91,11.91,0,0,1,1.64-.4"/><path class="cls-16" d="M126,68.17v1.4a9.91,9.91,0,0,0-2,.89v-1.4a9.58,9.58,0,0,1,2-.89"/><path class="cls-15" d="M124,69.06v1.4a6.33,6.33,0,0,0-1,.77V69.82a6.39,6.39,0,0,1,1-.76"/><path class="cls-14" d="M123,69.82v1.41a3.85,3.85,0,0,0-.35.35c-.34.38-.7.74-1.08,1.1V71.27a13.87,13.87,0,0,0,1.08-1.09l.35-.36"/><path class="cls-15" d="M121.58,71.27v1.41a26.08,26.08,0,0,1-4.15,3v-1.4a25.69,25.69,0,0,0,4.15-3.06"/><path class="cls-16" d="M117.43,74.33v1.4a47.38,47.38,0,0,1-7.32,3.53l-.49.17V78l.49-.17a47.38,47.38,0,0,0,7.32-3.53"/><path class="cls-15" d="M109.62,78v1.4a10.38,10.38,0,0,1-1.41.35v-1.4a12.1,12.1,0,0,0,1.41-.35"/><path class="cls-14" d="M108.21,78.38v1.4c-.33.06-.66.11-1,.14v-1.4c.34,0,.67-.08,1-.14"/><path class="cls-13" d="M107.22,78.52v1.4l-.48,0c-1.16.07-2.87.16-5,.23v-1.4c2.18-.08,3.88-.16,5-.23l.48,0"/><path class="cls-12" d="M101.7,78.79v1.4c-3.92.14-9.36.22-15.85.06V78.84c6.48.17,11.92.08,15.84,0"/><path class="cls-11" d="M85.86,78.84v1.41c-4.87-.12-10.32-.38-16.16-.87V78c5.84.48,11.3.74,16.17.86"/><path class="cls-10" d="M69.69,78v1.4l-3-.26c-2-.19-4.06-.43-6-.71V77c2,.28,4,.53,6,.72l3,.26"/><path class="cls-9" d="M60.66,77v1.41c-3.11-.44-6.13-1-9-1.58v-1.4c2.89.6,5.91,1.13,9,1.57"/><path class="cls-6" d="M51.64,75.43v1.4C47.41,76,43.45,75,39.92,73.94v-1.4c3.54,1,7.49,2,11.72,2.89"/><path class="cls-5" d="M39.92,72.54v1.4C33.22,72,28,70.11,25.17,69v-1.4c2.84,1.12,8,3,14.74,5"/><path class="cls-4" d="M25.18,67.59V69c-.8-.31-1.41-.56-1.81-.73v-1.4c.4.17,1,.42,1.82.73"/></g></g></g></g><g class="cls-2"><g class="cls-2"><g class="cls-2"><path class="cls-17" d="M116.07,20.74v1.4c0,.09,0,.18,0,.26V20.74"/><path class="cls-18" d="M116.07,21v1.4a10,10,0,0,1-.19,1.72v-1.4a11.05,11.05,0,0,0,.2-1.72"/><path class="cls-19" d="M115.87,22.72v1.4a11.58,11.58,0,0,1-.49,1.69v-1.4a11.54,11.54,0,0,0,.48-1.69"/><path class="cls-20" d="M115.39,24.41v1.4a11.35,11.35,0,0,1-.8,1.7v-1.4a13.75,13.75,0,0,0,.8-1.7"/><path class="cls-21" d="M114.59,26.11v1.4a13.32,13.32,0,0,1-1.2,1.79V27.9a15.22,15.22,0,0,0,1.21-1.79"/><path class="cls-22" d="M113.38,27.9v1.4a17.24,17.24,0,0,1-1.86,2V29.9a18.09,18.09,0,0,0,1.86-2"/><path class="cls-23" d="M111.52,29.9v1.4a23.6,23.6,0,0,1-3.79,2.81V32.7a22.58,22.58,0,0,0,3.79-2.8"/><path class="cls-24" d="M107.73,32.7v1.41l-.37.21a33.48,33.48,0,0,1-6.55,2.88V35.8a33.83,33.83,0,0,0,6.56-2.88l.36-.22"/><path class="cls-23" d="M100.81,35.8v1.4a43.1,43.1,0,0,1-5.67,1.41v-1.4a42.57,42.57,0,0,0,5.66-1.41"/><path class="cls-22" d="M95.15,37.21v1.4c-1.25.23-2.53.41-3.81.54V37.74c1.29-.12,2.56-.3,3.82-.53"/><path class="cls-21" d="M91.33,37.74v1.41c-1.1.11-2.21.18-3.33.22V38c1.11,0,2.22-.11,3.32-.22"/><path class="cls-20" d="M88,38v1.41c-1,0-2,0-3.06,0V38c1,0,2,0,3.07,0"/><path class="cls-19" d="M84.94,38v1.4c-1,0-2-.08-3-.16v-1.4c1,.08,2,.13,3,.16"/><path class="cls-18" d="M82,37.82v1.4c-1-.08-2-.18-2.91-.32V37.5c1,.13,1.93.24,2.91.32"/><path class="cls-17" d="M79.08,37.5v1.4c-1-.14-2-.32-3-.52V37c1,.2,2,.37,3,.52"/><path class="cls-25" d="M76.1,37v1.4C75,38.16,74,37.91,73,37.62V36.21c1,.29,2.06.55,3.12.77"/><path class="cls-26" d="M73,36.21v1.41c-1.25-.36-2.47-.77-3.64-1.23V35A35.35,35.35,0,0,0,73,36.21"/><path class="cls-27" d="M69.34,35v1.41A32.48,32.48,0,0,1,65,34.32c-5.9-3.41-8.85-7.88-8.84-12.35v-1.4c0,4.46,2.93,8.94,8.83,12.34A32.48,32.48,0,0,0,69.34,35"/></g><path class="cls-1" d="M116.07,20.74v1.4c0,4.41-2.92,8.82-8.71,12.18-11.64,6.77-30.61,6.77-42.34,0-5.9-3.41-8.85-7.88-8.84-12.35v-1.4c0,4.46,2.93,8.94,8.83,12.34,11.74,6.78,30.7,6.78,42.35,0C113.16,29.55,116.06,25.15,116.07,20.74Z"/></g><path class="cls-28" d="M107.57,10.45c11.74,6.78,11.8,17.76.14,24.54S77.1,41.76,65.36,35s-11.78-17.75-.14-24.52S95.85,3.68,107.57,10.45Z"/></g></g></g></g></svg>