<svg xmlns="http://www.w3.org/2000/svg" xmlns:xlink="http://www.w3.org/1999/xlink" viewBox="0 0 58.8 30.3"><defs><style>.cls-1{fill:none;}.cls-2{isolation:isolate;}.cls-3{clip-path:url(#clip-path);}.cls-4{fill:#858585;}.cls-5{fill:#8a8a8a;}.cls-6{fill:#8f8f8f;}.cls-7{fill:#fff;}.cls-8{clip-path:url(#clip-path-2);}.cls-9{fill:#949494;}.cls-10{fill:#999;}.cls-11{fill:#9e9e9e;}.cls-12{fill:#a3a3a3;}.cls-13{fill:#a8a8a8;}.cls-14{fill:#adadad;}.cls-15{fill:#b3b3b3;}.cls-16{fill:#b8b8b8;}.cls-17{clip-path:url(#clip-path-3);}.cls-18{fill:#a1920a;}.cls-19{fill:#a5960b;}.cls-20{fill:#a9990c;}.cls-21{fill:#ad9d0d;}.cls-22{fill:#b1a10e;}.cls-23{fill:#b6a50f;}.cls-24{fill:#baa910;}.cls-25{fill:#bfac10;}.cls-26{fill:#9d8f08;}.cls-27{fill:#998b07;}.cls-28{fill:#958705;}.cls-29{fill:#ffe309;}</style><clipPath id="clip-path"><path class="cls-1" d="M0,16.36v-.53c0,4,2.62,6.43,5,7.79a15.32,15.32,0,0,0,3.41,1.45,3.12,3.12,0,0,1,.43.15v.53a3.12,3.12,0,0,0-.43-.15A15.12,15.12,0,0,1,5,24.15C2.61,22.79,0,20.38,0,16.36Z"/></clipPath><clipPath id="clip-path-2"><path class="cls-1" d="M58.8,8.88v.53c0,1.69-.74,4.59-3.71,9.39-3.5,5.67-5.71,7.07-6.91,7.29a3.3,3.3,0,0,0-1.91.91,13.34,13.34,0,0,1-4.74,2.9,4.62,4.62,0,0,1-1.27.26,101.58,101.58,0,0,1-15.1-.32A60.4,60.4,0,0,1,8.81,25.75v-.53a60.4,60.4,0,0,0,16.35,4.09,101.58,101.58,0,0,0,15.1.32,4.54,4.54,0,0,0,1.27-.26,13.26,13.26,0,0,0,4.74-2.9,3.33,3.33,0,0,1,1.91-.91c1.21-.21,3.41-1.62,6.91-7.29C58.06,13.47,58.8,10.57,58.8,8.88Z"/></clipPath><clipPath id="clip-path-3"><path class="cls-1" d="M43.78,7.82v.53c0,1.67-1.1,3.33-3.28,4.6-4.4,2.55-11.55,2.55-16,0-2.22-1.28-3.33-3-3.33-4.65V7.76c0,1.68,1.11,3.37,3.34,4.65C29,15,36.11,15,40.5,12.42,42.68,11.15,43.78,9.49,43.78,7.82Z"/></clipPath></defs><title>Asset 11</title><g id="Layer_2" data-name="Layer 2"><g id="Artboard_1" data-name="Artboard 1"><g id="Title"><g id="Suuny_Side_Up_Egg" data-name="Suuny Side Up Egg"><g class="cls-2"><g class="cls-2"><g class="cls-3"><g class="cls-2"><path class="cls-4" d="M8.81,25.22v.53l-.08,0v-.53l.08,0"/><path class="cls-5" d="M8.73,25.18v.53l-.32-.1v-.53l.32.1"/><path class="cls-6" d="M8.41,25.08v.53H8.34v-.53h.06"/><path class="cls-5" d="M8.35,25.06v.53c-.26-.08-.73-.22-1.31-.45v-.53c.58.23,1,.37,1.32.45"/><path class="cls-4" d="M7,24.61v.53a14.51,14.51,0,0,1-2.06-1c-2.36-1.36-5-3.77-5-7.79v-.53c0,4,2.62,6.43,5,7.79a15,15,0,0,0,2.06,1"/></g></g></g><path class="cls-7" d="M53.9,3A12.55,12.55,0,0,1,58,6.62l.15.18c.42.44,2.15,3-3.1,11.47-3.5,5.67-5.7,7.08-6.91,7.29a3.33,3.33,0,0,0-1.91.91,13.26,13.26,0,0,1-4.74,2.9,4.54,4.54,0,0,1-1.27.26,101.58,101.58,0,0,1-15.1-.32A60.4,60.4,0,0,1,8.81,25.22a3.12,3.12,0,0,0-.43-.15A15.32,15.32,0,0,1,5,23.62C2,21.89-1.46,18.45.66,12.19A11.64,11.64,0,0,1,12,3.86a12.1,12.1,0,0,0,4.33-.93,6.6,6.6,0,0,1,.73-.28C19,2,20.93,1.4,37.2.14,45.46-.5,50.72,1.2,53.9,3Z"/><g class="cls-2"><g class="cls-8"><g class="cls-2"><path class="cls-9" d="M58.8,8.88v0"/><path class="cls-10" d="M58.8,9v.53a10.17,10.17,0,0,1-.17,1.37v-.53A7.6,7.6,0,0,0,58.8,9"/><path class="cls-11" d="M58.63,10.41v.53A15.9,15.9,0,0,1,58,13.15v-.53a14.63,14.63,0,0,0,.65-2.21"/><path class="cls-12" d="M58,12.62v.53a29.94,29.94,0,0,1-1.93,4v-.53a28.76,28.76,0,0,0,1.93-4"/><path class="cls-13" d="M56.05,16.64v.53c-.29.52-.61,1.06-1,1.63a38,38,0,0,1-2.56,3.72V22a40,40,0,0,0,2.55-3.72c.35-.57.67-1.11,1-1.63"/><path class="cls-14" d="M52.54,22v.53a18.19,18.19,0,0,1-1.89,2.09v-.53A19.25,19.25,0,0,0,52.54,22"/><path class="cls-15" d="M50.65,24.08v.53a7.83,7.83,0,0,1-1.29,1v-.53a8.77,8.77,0,0,0,1.29-1"/><path class="cls-16" d="M49.36,25.08v.53a4.24,4.24,0,0,1-.82.39v-.53a4.3,4.3,0,0,0,.83-.39"/><path class="cls-15" d="M48.53,25.47V26a2.37,2.37,0,0,1-.34.08v-.53a1.51,1.51,0,0,0,.34-.08"/><path class="cls-14" d="M48.19,25.55v.53h0v-.53h0"/><path class="cls-15" d="M48.16,25.56v.53a5.44,5.44,0,0,0-.61.15v-.53a5.12,5.12,0,0,1,.62-.15"/><path class="cls-16" d="M47.54,25.71v.53a3.7,3.7,0,0,0-.75.34v-.53a3.7,3.7,0,0,1,.75-.34"/><path class="cls-15" d="M46.79,26.05v.53a2,2,0,0,0-.39.29v-.53a2,2,0,0,1,.39-.29"/><path class="cls-14" d="M46.4,26.34v.53a.8.8,0,0,0-.13.13c-.13.14-.27.28-.41.41v-.53c.14-.13.28-.27.41-.41l.13-.13"/><path class="cls-15" d="M45.86,26.88v.53a9.51,9.51,0,0,1-1.57,1.16V28a9.51,9.51,0,0,0,1.57-1.16"/><path class="cls-16" d="M44.29,28v.53a17.83,17.83,0,0,1-2.76,1.33l-.18.06v-.53l.18-.06A17.83,17.83,0,0,0,44.29,28"/><path class="cls-15" d="M41.35,29.43V30a3.16,3.16,0,0,1-.53.13v-.53a3.16,3.16,0,0,0,.53-.13"/><path class="cls-14" d="M40.82,29.56v.53l-.38.06v-.53l.38-.06"/><path class="cls-13" d="M40.44,29.62v.53h-.18l-1.9.09v-.53l1.9-.09h.18"/><path class="cls-12" d="M38.36,29.72v.53c-1.48.05-3.53.08-6,0v-.53c2.45.06,4.5,0,6,0"/><path class="cls-11" d="M32.38,29.74v.53c-1.83-.05-3.89-.14-6.09-.33v-.53c2.2.19,4.26.28,6.09.33"/><path class="cls-10" d="M26.29,29.41v.53l-1.13-.1c-.77-.07-1.53-.16-2.28-.26v-.53c.75.1,1.51.19,2.28.26l1.13.1"/><path class="cls-9" d="M22.88,29.05v.53c-1.17-.17-2.31-.37-3.4-.6v-.53c1.09.23,2.23.43,3.4.6"/><path class="cls-6" d="M19.48,28.45V29c-1.6-.33-3.09-.71-4.42-1.09v-.53c1.33.38,2.82.76,4.42,1.09"/><path class="cls-5" d="M15.06,27.36v.53A58.09,58.09,0,0,1,9.5,26V25.5c1.07.42,3,1.14,5.56,1.86"/><path class="cls-4" d="M9.5,25.5V26c-.31-.11-.54-.21-.69-.27v-.53l.69.28"/></g></g></g></g><g class="cls-2"><g class="cls-2"><g class="cls-17"><g class="cls-2"><path class="cls-18" d="M43.78,7.82v0"/><path class="cls-19" d="M43.78,7.92v.53a3.61,3.61,0,0,1-.08.65V8.57a4.78,4.78,0,0,0,.07-.65"/><path class="cls-20" d="M43.71,8.57V9.1a4.12,4.12,0,0,1-.18.64V9.21a5.17,5.17,0,0,0,.19-.64"/><path class="cls-21" d="M43.52,9.21v.53a4.6,4.6,0,0,1-.3.64V9.85a4.6,4.6,0,0,0,.3-.64"/><path class="cls-22" d="M43.22,9.85v.53a5.61,5.61,0,0,1-.45.67v-.53a5.61,5.61,0,0,0,.45-.67"/><path class="cls-23" d="M42.77,10.52v.53a8.18,8.18,0,0,1-.7.76v-.53a8.18,8.18,0,0,0,.7-.76"/><path class="cls-24" d="M42.07,11.28v.53a9.26,9.26,0,0,1-1.44,1.06v-.53a9.65,9.65,0,0,0,1.43-1.06"/><path class="cls-25" d="M40.64,12.34v.53L40.5,13A13.09,13.09,0,0,1,38,14V13.5a12.81,12.81,0,0,0,2.47-1.08l.14-.08"/><path class="cls-24" d="M38,13.5V14a16.75,16.75,0,0,1-2.14.54V14A16.34,16.34,0,0,0,38,13.5"/><path class="cls-23" d="M35.89,14v.53c-.47.08-1,.15-1.44.2v-.53c.49-.05,1-.12,1.44-.2"/><path class="cls-22" d="M34.45,14.24v.53c-.42,0-.84.07-1.25.08v-.53c.42,0,.83,0,1.25-.08"/><path class="cls-21" d="M33.2,14.32v.53H32v-.52c.38,0,.77,0,1.16,0"/><path class="cls-20" d="M32,14.33v.52c-.37,0-.75,0-1.12,0v-.53q.55,0,1.11.06"/><path class="cls-19" d="M30.93,14.27v.53l-1.09-.13v-.53c.36,0,.73.1,1.1.13"/><path class="cls-18" d="M29.83,14.14v.53c-.38-.05-.76-.12-1.12-.19V14c.37.07.74.14,1.12.19"/><path class="cls-26" d="M28.71,14v.53c-.4-.09-.8-.18-1.18-.29v-.53c.38.11.78.21,1.18.29"/><path class="cls-27" d="M27.53,13.66v.53c-.48-.14-.93-.29-1.38-.46V13.2c.44.17.9.33,1.37.46"/><path class="cls-28" d="M26.16,13.2v.53a12.28,12.28,0,0,1-1.63-.79c-2.22-1.28-3.33-3-3.33-4.65V7.76c0,1.68,1.11,3.37,3.34,4.65a11.71,11.71,0,0,0,1.63.79"/></g></g></g><path class="cls-29" d="M40.45,3.16c4.42,2.56,4.45,6.7,0,9.26s-11.55,2.55-16,0-4.45-6.69-.06-9.24S36,.61,40.45,3.16Z"/></g></g></g></g></g></svg>